<svg width="874" height="874" viewBox="0 0 874 874" fill="none" xmlns="http://www.w3.org/2000/svg">
<g clip-path="url(#clip0_1622_7)">
<path d="M-1 126.996C-1 56.8579 55.8579 0 125.996 0H747.004C817.142 0 874 56.8579 874 126.996V748.004C874 818.142 817.142 875 747.004 875H125.996C55.8579 875 -1 818.142 -1 748.004V126.996Z" fill="url(#paint0_linear_1622_7)"/>
<path fill-rule="evenodd" clip-rule="evenodd" d="M747.418 103.693H125.582C112.941 103.693 102.693 113.941 102.693 126.582V748.418C102.693 761.059 112.941 771.307 125.582 771.307H747.418C760.059 771.307 770.307 761.059 770.307 748.418V126.582C770.307 113.941 760.059 103.693 747.418 103.693ZM125.582 63C90.4668 63 62 91.4668 62 126.582V748.418C62 783.533 90.4668 812 125.582 812H747.418C782.533 812 811 783.533 811 748.418V126.582C811 91.4668 782.533 63 747.418 63H125.582Z" fill="black"/>
<path d="M638.5 454.625H550.152C554.461 457.277 558.717 460.11 562.894 463.136C605.705 494.157 639.5 544.829 639.5 622.125V639.625H419.5V551.885C417.138 555.645 414.639 559.362 411.989 563.019C380.968 605.83 330.296 639.625 253 639.625H235.5V419.625H322.24C318.48 417.263 314.763 414.764 311.106 412.114C268.295 381.093 234.5 330.421 234.5 253.125V235.625H454.5V322.364C456.862 318.605 459.362 314.887 462.011 311.231C493.032 268.42 543.704 234.625 621 234.625H638.5V454.625ZM454.5 604.625H603.803C599.295 549.373 573.462 514.016 542.356 491.478C514.124 471.021 481.02 460.827 454.5 457.176V604.625ZM270.5 603.928C325.752 599.42 361.109 573.587 383.647 542.481C404.104 514.249 414.298 481.145 417.949 454.625H270.5V603.928ZM603.5 270.322C548.248 274.83 512.891 300.663 490.353 331.769C469.896 360.001 459.702 393.105 456.051 419.625H603.5V270.322ZM270.197 270.625C274.705 325.877 300.538 361.234 331.644 383.772C359.876 404.229 392.98 414.423 419.5 418.074V270.625H270.197Z" fill="black"/>
</g>
<defs>
<linearGradient id="paint0_linear_1622_7" x1="64" y1="875" x2="824" y2="-2.68647e-06" gradientUnits="userSpaceOnUse">
<stop stop-color="#B6D0F7"/>
<stop offset="0.14" stop-color="#EEF4E1"/>
<stop offset="0.28" stop-color="#FAFCFE"/>
<stop offset="0.42" stop-color="#E2C1F9"/>
<stop offset="0.57" stop-color="#BFD1F9"/>
<stop offset="0.71" stop-color="#FAFCFE"/>
<stop offset="0.85" stop-color="#BAE4E2"/>
<stop offset="1" stop-color="#8C6BE3"/>
</linearGradient>
<clipPath id="clip0_1622_7">
<rect width="874" height="874" fill="white"/>
</clipPath>
</defs>
</svg>
