<svg width="405" height="405" viewBox="0 0 405 405" fill="none" xmlns="http://www.w3.org/2000/svg">
<path d="M404 220H315.652C319.961 222.652 324.217 225.485 328.394 228.511C371.205 259.532 405 310.204 405 387.5V405H185V317.26C182.638 321.02 180.139 324.737 177.489 328.394C146.468 371.205 95.7964 405 18.5 405H1V185H87.7402C83.9804 182.638 80.2626 180.139 76.6064 177.489C33.795 146.468 0 95.7964 0 18.5V1H220V87.7393C222.362 83.9797 224.862 80.2624 227.511 76.6064C258.532 33.795 309.204 -3.37873e-06 386.5 0H404V220ZM220 370H369.303C364.795 314.748 338.962 279.391 307.856 256.853C279.624 236.396 246.52 226.202 220 222.551V370ZM36 369.303C91.2518 364.795 126.609 338.962 149.147 307.856C169.604 279.624 179.798 246.52 183.449 220H36V369.303ZM369 35.6973C313.748 40.2054 278.391 66.0383 255.853 97.1436C235.396 125.376 225.202 158.48 221.551 185H369V35.6973ZM35.6973 36C40.2054 91.2518 66.0383 126.609 97.1436 149.147C125.376 169.604 158.48 179.798 185 183.449V36H35.6973Z" fill="black"/>
</svg>
